<svg width="59" height="31" viewBox="0 0 59 31" fill="none" xmlns="http://www.w3.org/2000/svg">
<path fill-rule="evenodd" clip-rule="evenodd" d="M32.8737 8.72811V21.3552H31.4832V11.2178L26.889 21.3646H25.5267L25.4703 21.2613L20.9136 11.2272V21.374H19.5232V8.72811H21.2988L21.3552 8.83146L26.2125 19.5138L31.1074 8.72811H32.8737ZM13.3036 15.4175C13.2472 15.4175 13.1626 15.4175 13.0311 15.4175C12.148 15.4175 9.97767 15.5396 8.83146 16.6107C8.3617 17.0522 8.13622 17.6253 8.13622 18.3206C8.13622 18.9876 8.3711 19.4762 8.84085 19.7862C10.0998 20.613 12.768 20.1902 13.8391 19.7299C15.1356 19.1755 16.0282 18.236 16.2818 17.9448C16.2912 16.9959 16.2912 16.1315 16.2912 15.3705L13.3036 15.4175ZM17.6817 14.8819L17.6723 21.3646H16.2912L16.263 19.8802C15.8027 20.2466 15.1638 20.6976 14.384 21.0264C13.6324 21.3458 12.2889 21.6653 10.9454 21.6653C9.78037 21.6653 8.78448 21.4116 8.08924 20.9606C7.2061 20.3875 6.76452 19.495 6.76452 18.3394C6.76452 17.2495 7.14972 16.3288 7.89194 15.6242C9.42335 14.1773 12.0164 14.0364 13.0499 14.0458C13.172 14.0458 15.6054 14.0176 16.2912 14.0176C16.2818 13.5854 16.2818 13.2566 16.2536 12.9371C16.1315 10.8232 14.835 9.83674 12.1573 9.83674C9.34819 9.83674 8.65295 11.744 8.5496 12.1198L8.48384 12.3734H7.05577L7.14972 11.9507C7.22489 11.5936 8.07985 8.44626 12.148 8.44626C16.4603 8.44626 17.5032 10.8514 17.6159 12.8526C17.6535 13.3505 17.6817 14.8162 17.6817 14.8819ZM53.2142 5.68408V0H0V30.0833H53.2236V24.3993H51.9365V28.7774H1.27774V1.28714H51.9177V5.66529L53.2142 5.68408ZM44.007 18.2266C43.1238 19.5138 41.7897 20.256 40.3335 20.256C37.778 20.256 35.6922 17.9166 35.6922 15.0323C35.6922 12.148 37.778 9.80856 40.3335 9.80856C41.7897 9.80856 43.1238 10.5602 44.007 11.8379H45.6041C44.5425 9.724 42.5319 8.40868 40.3335 8.40868C36.9982 8.40868 34.3018 11.3776 34.3018 15.0041C34.3018 18.6306 37.0076 21.5995 40.3335 21.5995C42.5507 21.5995 44.5425 20.303 45.6229 18.1703H44.007V18.2266Z" fill="#F2F2F2"/>
<path fill-rule="evenodd" clip-rule="evenodd" d="M53.2048 14.4218V9.49878H51.9459V14.4218H47.0228V15.6714H51.9459V20.6039H53.2048V15.6714H58.1185V14.4218H53.2048Z" fill="#F2F2F2"/>
</svg>
