<svg width="24" height="24" viewBox="0 0 24 24" fill="none" xmlns="http://www.w3.org/2000/svg">
<path d="M3.36148 3.24422H2.97409V1.99469H3.36148C3.59249 1.98008 3.82422 2.00832 4.04497 2.078C4.13931 2.12433 4.21797 2.19732 4.27124 2.28793C4.3245 2.37853 4.35002 2.48277 4.34462 2.58774C4.34682 2.70305 4.31584 2.81656 4.25536 2.91476C4.19489 3.01296 4.10746 3.09172 4.0035 3.14165L4.00168 3.14253L3.99991 3.14351C3.79708 3.22357 3.5791 3.25796 3.36148 3.24422ZM12.6455 4.14844C12.3874 4.06874 12.1168 4.03767 11.8474 4.05683H11.2589V5.37646H11.8846C12.1262 5.38801 12.3683 5.36624 12.604 5.31177C12.7342 5.27291 12.849 5.19429 12.9324 5.08693C13.0157 4.97957 13.0634 4.84884 13.0688 4.71303C13.0664 4.5864 13.0242 4.46371 12.9483 4.36238C12.8723 4.26104 12.7663 4.18619 12.6455 4.14844ZM15.6707 7.38584H8.32961V0.0449219H15.6707V7.38584ZM14.0142 4.77656C14.0054 4.48269 13.9001 4.1999 13.7145 3.97192C13.5288 3.74395 13.2733 3.58349 12.9873 3.51537C13.1676 3.42298 13.3184 3.28174 13.4223 3.10778C13.5262 2.93381 13.5791 2.73413 13.575 2.53153C13.5777 2.25366 13.489 1.98261 13.3225 1.7601C13.1561 1.5376 12.9211 1.37597 12.6538 1.3001C12.3689 1.21213 12.0709 1.17457 11.773 1.18913H10.3434V6.18226H11.8475C12.2208 6.21161 12.5963 6.17661 12.9577 6.0788C13.1962 6.00206 13.4158 5.87605 13.6025 5.70895C13.7341 5.59231 13.8391 5.44862 13.9101 5.28771C13.9812 5.1268 14.0167 4.95245 14.0142 4.77656ZM4.36066 4.14844C4.1026 4.06874 3.83197 4.03767 3.56256 4.05683H2.97409V5.37646H3.59978C3.84143 5.38801 4.08352 5.36624 4.31924 5.31177C4.44947 5.27291 4.56431 5.19429 4.64765 5.08693C4.73099 4.97957 4.77867 4.84884 4.78402 4.71303C4.78166 4.58639 4.7395 4.4637 4.66351 4.36237C4.58752 4.26103 4.48157 4.18618 4.36066 4.14844ZM12.2847 3.14361L12.2865 3.14263L12.2883 3.14174C12.3922 3.09181 12.4797 3.01305 12.5401 2.91485C12.6006 2.81664 12.6316 2.70313 12.6294 2.58783C12.6348 2.48287 12.6093 2.37863 12.556 2.28803C12.5028 2.19742 12.4241 2.12443 12.3298 2.07809C12.109 2.00836 11.8772 1.98008 11.6461 1.99469H11.2589V3.24413H11.6461C11.8638 3.25795 12.0818 3.22363 12.2847 3.14361ZM7.38588 7.38584H0.0447703V0.0449219H7.38588V7.38584ZM5.72933 4.77656C5.7206 4.48269 5.61528 4.19989 5.42967 3.9719C5.24405 3.74391 4.98847 3.58345 4.70248 3.51532C4.88284 3.42293 5.03358 3.2817 5.13751 3.10773C5.24143 2.93376 5.29434 2.73408 5.29021 2.53148C5.29291 2.25362 5.20421 1.98257 5.03776 1.76006C4.8713 1.53755 4.63633 1.37592 4.36901 1.30005C4.08411 1.21208 3.78603 1.17452 3.48821 1.18908H2.05863V6.18226H3.56247C3.93572 6.2116 4.31123 6.17661 4.67263 6.0788C4.91109 6.00204 5.13075 5.87603 5.3174 5.70895C5.44911 5.59233 5.55408 5.44865 5.62518 5.28774C5.69627 5.12682 5.73179 4.95246 5.72933 4.77656ZM23.9554 0.0449219V7.38584H16.6144V0.0449219H23.9554ZM22.4817 4.801L22.3346 4.89121C21.806 5.2239 21.1959 5.40408 20.5714 5.41187C19.2423 5.41187 18.637 4.52435 18.637 3.69976C18.6366 3.47448 18.6824 3.25152 18.7715 3.04463C18.8607 2.83773 18.9912 2.65128 19.1552 2.49678C19.5399 2.14762 20.0445 1.96025 20.5638 1.97365C21.1677 1.98644 21.7593 2.14682 22.287 2.4408L22.4292 2.51688V1.55156L22.3689 1.52707C21.791 1.27756 21.1706 1.14138 20.5414 1.12592C18.9364 1.12592 17.6792 2.25348 17.6792 3.69285C17.6835 4.33125 17.9305 4.94409 18.37 5.40716C18.6509 5.68975 18.988 5.91036 19.3594 6.05478C19.7308 6.1992 20.1283 6.26424 20.5264 6.2457C21.1863 6.2573 21.8392 6.10877 22.4291 5.81283L22.4817 5.78582V4.801ZM1.77064 22.5486C1.91091 22.7335 2.34816 23.4068 2.70611 23.9554H0.0446777V21.689H0.301228C0.771224 21.689 1.1011 21.689 1.77074 22.5486H1.77064ZM23.9084 10.8492C23.9245 10.8568 23.9401 10.8653 23.9556 10.8739V12.6484C23.8995 12.6841 23.8401 12.7142 23.7783 12.7384C23.4679 12.8152 23.1484 12.8489 22.8288 12.8384H22.4491V10.6893H22.749C23.1425 10.6566 23.5383 10.7112 23.9083 10.8492H23.9084ZM17.7127 19.3L18.8122 21.7688H16.6931L17.7127 19.3ZM0.421385 20.8193H0.0447703V18.6703H0.341434C0.734969 18.6376 1.13088 18.6922 1.50085 18.8303C1.66346 18.9186 1.79824 19.0505 1.89004 19.2112C1.98185 19.3718 2.02705 19.5549 2.02057 19.7399C2.0248 19.9498 1.96488 20.1561 1.84879 20.3312C1.73271 20.5062 1.56599 20.6416 1.37089 20.7194C1.06049 20.7962 0.740982 20.8299 0.421385 20.8195V20.8193ZM19.2119 22.6485L19.8036 23.9554H15.7542L16.3133 22.6485H19.2119ZM23.9553 8.28987V9.94447C23.7041 9.88548 23.4466 9.85706 23.1886 9.85981H21.4794V16.6763H22.4491V13.7078H22.709C22.9507 13.6857 23.1938 13.7288 23.4131 13.8328C23.6324 13.9368 23.8197 14.0977 23.9555 14.2988V23.9552H20.809L18.0727 17.8008H17.383L14.7543 23.9552H13.8047V23.0783C13.0888 23.56 12.2486 23.8239 11.3859 23.838C11.036 23.8614 10.685 23.8121 10.3551 23.6931C10.0252 23.5742 9.72348 23.3882 9.46902 23.1468C9.21455 22.9055 9.01283 22.6141 8.87656 22.2909C8.7403 21.9678 8.67245 21.6199 8.6773 21.2693C8.67632 20.9197 8.74629 20.5735 8.88298 20.2517C9.01966 19.93 9.22021 19.6393 9.4725 19.3973C9.72478 19.1552 10.0235 18.9669 10.3507 18.8437C10.6779 18.7205 11.0266 18.665 11.3759 18.6805C12.2077 18.6994 13.0204 18.9335 13.7348 19.3601V18.3106C12.9848 17.9637 12.172 17.7732 11.346 17.7509C10.8722 17.734 10.3998 17.812 9.95654 17.9801C9.51326 18.1482 9.10801 18.403 8.76452 18.7298C8.42103 19.0565 8.14622 19.4486 7.95619 19.8829C7.76617 20.3172 7.66477 20.7851 7.65792 21.2591C7.65786 21.7731 7.77041 22.2808 7.98766 22.7466C8.20491 23.2124 8.52157 23.625 8.91538 23.9552H6.31855V17.841H5.339V23.9552H3.83115C3.67838 23.736 3.55655 23.5518 3.39991 23.298C2.88019 22.4584 2.50041 21.8287 1.88073 21.419C2.22549 21.2981 2.52229 21.0697 2.72743 20.7674C2.93256 20.4651 3.03516 20.1048 3.02013 19.7398C3.03155 19.3848 2.93559 19.0346 2.74479 18.735C2.55399 18.4354 2.27722 18.2004 1.95069 18.0606C1.58073 17.9057 1.18221 17.8308 0.781252 17.8407H0.0448165V8.28987H23.9553ZM6.93678 16.7165L3.88828 9.85995H3.19864L0.270113 16.7165H1.26958L2.12916 14.7075H5.02773L5.93731 16.7165H6.93678ZM14.1731 9.89997H13.2635L11.0047 12.6987L8.7358 9.89997H7.81651V16.7165H8.79606V11.4092L10.915 14.0478H11.0949L13.1939 11.4092V16.7165H14.1735L14.1731 9.89997ZM19.8342 15.8369H16.8557V13.718H19.6444V12.8484H16.8557V10.7694H19.7443V9.89997H15.8763V16.7165H19.8342V15.8369ZM3.52847 11.359L4.62789 13.8278H2.50899L3.52847 11.359Z" fill="white"/>
</svg>
