<svg width="24" height="24" viewBox="0 0 24 24" fill="none" xmlns="http://www.w3.org/2000/svg">
<path fill-rule="evenodd" clip-rule="evenodd" d="M19.0008 4H5.00066C4.40065 4 4.00065 4.4 4.00065 5.00001V7.00003C4.00065 7.60004 4.40065 8.00004 5.00066 8.00004H19.0008C19.6008 8.00004 20.0008 7.60004 20.0008 7.00003V5.00001C20.0008 4.4 19.6008 4 19.0008 4ZM6.99989 9.99942H4.99996C4.39998 9.99942 4 10.3994 4 10.9994V18.9991C4 19.5991 4.39998 19.9991 4.99996 19.9991H6.99989C7.59986 19.9991 7.99985 19.5991 7.99985 18.9991V10.9994C7.99985 10.3994 7.59986 9.99942 6.99989 9.99942ZM10.9994 9.99942H18.9991C19.5991 9.99942 19.9991 10.3994 19.9991 10.9994V18.9991C19.9991 19.5991 19.5991 19.9991 18.9991 19.9991H10.9994C10.3994 19.9991 9.99945 19.5991 9.99945 18.9991V10.9994C9.99945 10.3994 10.3994 9.99942 10.9994 9.99942Z" fill="white"/>
</svg>
