<svg xmlns="http://www.w3.org/2000/svg" width="90" height="35" viewBox="0 0 90 35"><defs><style>.cls-1{fill:#fff;}</style></defs><g id="Layer_2" data-name="Layer 2"><g id="Layer_1-2" data-name="Layer 1"><path class="cls-1" d="M90,0H0V31.7506H0v3.192H89.93v-3.144H90ZM1.1968,1.1968H88.8032V30.6017H1.1968Z"/><rect class="cls-1" x="12.2628" y="13.1145" width="2.0367" height="7.3135"/><rect class="cls-1" x="12.2628" y="9.4731" width="2.0367" height="2.2218"/><path class="cls-1" d="M24.3594,12.9447a1.3632,1.3632,0,0,0-.4165.0617l-1.62,1.3579a2.2568,2.2568,0,0,0-2.3453-1.42,1.46,1.46,0,0,0-.432.0617l-1.45,1.2036V13.1145H16.0584V20.428h2.0367V15.29l1.25-.2c.5246-.0772,1.0955.0154,1.0955.8949V20.428h2.0367V15.29l1.25-.2c.5246-.0772,1.111.0154,1.111.8949V20.428h2.0366V15.29A2.2454,2.2454,0,0,0,24.3594,12.9447Z"/><path class="cls-1" d="M31.5805,12.9447c-2.299,0-3.1785,1.0647-3.1785,2.5768v.1851a2.39,2.39,0,0,0,1.3269,2.4071l-.3394.37a.4264.4264,0,0,0-.1234.3394v.3241a.8161.8161,0,0,0,.5091.74,1.89,1.89,0,0,0-1.45,1.6973v.1234c0,1.5122,1.5892,2.1911,3.5333,2.1911,1.8053,0,3.7494-.7406,3.7494-2.2528V21.215c0-.88-.6789-1.6665-2.0676-1.867l-1.8361-.2469c-.3857-.0617-.6634-.1544-.6634-.3858a.5773.5773,0,0,1,.0771-.2777l.0617-.108a3.65,3.65,0,0,0,.6326.0309c1.5584,0,2.947-.6944,2.947-2.6539v-.1851a1.8929,1.8929,0,0,0-.4011-1.2344l1.3886.2932h.1543V13.1145H32.9383A4.8532,4.8532,0,0,0,31.5805,12.9447Zm.972,7.9153c.6481.0927,1.0647.1235,1.0647.5864v.17c0,.5092-.8641.7715-1.7435.7715-1.0493,0-1.6047-.3857-1.6047-.8332v-.2006a.7653.7653,0,0,1,.648-.71Zm.1852-5.1688c0,.6943-.216,1.1109-1.1572,1.1109s-1.1572-.4166-1.1572-1.1109v-.2469c0-.7252.1851-1.1417,1.1572-1.1417.9412,0,1.1572.4165,1.1572,1.1417Z"/><path class="cls-1" d="M40.1592,12.9447c-2.2064,0-2.8545,1.0647-2.8545,2.5768V17.82c0,2.1757,1.5121,2.7773,3.1785,2.7773a14.1065,14.1065,0,0,0,2.2527-.17v-.71a14.4754,14.4754,0,0,1-2.1447.1543c-1.188,0-2.5458-.4011-2.5458-1.8514v-.88h4.9374v-1.62C42.9828,14.0094,42.3656,12.9447,40.1592,12.9447Zm2.0829,3.4563H38.0454V15.1975c0-1.0338.864-1.5584,2.1138-1.5584,1.4195,0,2.0829.6789,2.0829,1.5275Z"/><path class="cls-1" d="M48.1517,12.9447a1.4612,1.4612,0,0,0-.4321.0617l-2.0983,1.3887V13.1145h-.7407V20.428h.7407V15.1666l1.8669-1.2344a1.5847,1.5847,0,0,1,.91-.2469c.8487,0,1.45.5247,1.45,1.867V20.428H50.59V15.2592A2.1345,2.1345,0,0,0,48.1517,12.9447Z"/><rect class="cls-1" x="53.3051" y="9.4731" width="0.7406" height="1.6973"/><rect class="cls-1" x="53.3051" y="13.1145" width="0.7406" height="7.3135"/><path class="cls-1" d="M59.7392,12.9447c-2.299,0-2.9471,1.0647-2.9471,2.5768v2.5c0,1.512.6481,2.5766,2.9471,2.5766s2.947-1.0646,2.947-2.5766v-2.5C62.6862,14.0094,62.0382,12.9447,59.7392,12.9447Zm2.2064,5.1535c0,1.1109-.6944,1.8052-2.2064,1.8052s-2.2064-.6943-2.2064-1.8052V15.46c0-1.111.6943-1.8053,2.2064-1.8053s2.2064.6943,2.2064,1.8053Z"/><path class="cls-1" d="M69.9073,18.3759,68.04,19.61a1.54,1.54,0,0,1-.8949.2469c-.8485,0-1.4657-.5246-1.4657-1.8669V13.1145H64.939v5.1534a2.1386,2.1386,0,0,0,2.4379,2.33,1.46,1.46,0,0,0,.432-.0617l2.0984-1.3886V20.428h.7406V13.1145h-.7406Z"/><path class="cls-1" d="M76.0943,16.5244l-1.5737-.216c-.8332-.108-.9875-.571-.9875-1.0492V14.92c0-.8331.5863-1.2344,1.975-1.2344a15.4377,15.4377,0,0,1,1.8824.1389v-.7251a13.7027,13.7027,0,0,0-1.9441-.1544c-1.975,0-2.6539.8024-2.6539,1.975v.4783c0,.9567.6481,1.5121,1.7127,1.651l1.5737.216c.8332.1234.9875.5708.9875,1.0492v.3548c0,.88-.71,1.1881-2.083,1.1881a18.9674,18.9674,0,0,1-2.16-.1851v.756a14.7619,14.7619,0,0,0,2.4842.17c1.6972,0,2.4995-.7406,2.4995-1.9132v-.5091C77.807,17.2342,77.19,16.6632,76.0943,16.5244Z"/></g></g></svg>
