<svg width="12" height="12" viewBox="0 0 12 12" fill="none" xmlns="http://www.w3.org/2000/svg">
<circle opacity="0.3" cx="6" cy="6" r="5.24792" stroke="#F2F2F2" stroke-width="1.50417"/>
<path d="M6 -2.62268e-07C6.92282 -3.02606e-07 7.8332 0.212862 8.66035 0.622033C9.4875 1.0312 10.2091 1.62565 10.7691 2.35916C11.3291 3.09266 11.7123 3.94544 11.889 4.85119C12.0657 5.75693 12.0311 6.69123 11.7878 7.58142C11.5446 8.47161 11.0993 9.2937 10.4866 9.98375C9.8739 10.6738 9.11027 11.2132 8.25511 11.5601C7.39996 11.9069 6.47632 12.0518 5.55603 11.9836C4.63574 11.9153 3.7436 11.6356 2.949 11.1664L3.71175 9.87478C4.3077 10.2267 4.9768 10.4365 5.66702 10.4877C6.35724 10.5389 7.04997 10.4302 7.69134 10.1701C8.3327 9.90992 8.90543 9.50536 9.36496 8.98781C9.8245 8.47027 10.1585 7.85371 10.3409 7.18606C10.5233 6.51842 10.5493 5.8177 10.4167 5.13839C10.2842 4.45908 9.9968 3.81949 9.57682 3.26937C9.15684 2.71924 8.61562 2.2734 7.99526 1.96652C7.3749 1.65965 6.69211 1.5 6 1.5L6 -2.62268e-07Z" fill="#F2F2F2"/>
</svg>
